<?xml version="1.0" encoding="utf-8"?>
<!-- Generator: Adobe Illustrator 27.5.0, SVG Export Plug-In . SVG Version: 6.00 Build 0)  -->
<svg version="1.1" xmlns="http://www.w3.org/2000/svg" xmlns:xlink="http://www.w3.org/1999/xlink" x="0px" y="0px"
	 viewBox="0 0 500 500" style="enable-background:new 0 0 500 500;" xml:space="preserve">
<g id="BACKGROUND">
	<rect style="fill:#FFFFFF;" width="500" height="500"/>
</g>
<g id="OBJECTS">
	<g>
		<g>
			<g>
				<path style="fill:#006837;" d="M232.135,266.775c0,2.46-0.937,4.909-2.81,6.783c-3.747,3.747-9.819,3.747-13.566,0
					c-1.873-1.874-2.81-4.323-2.81-6.783c0-1.659,0.44-3.318,1.298-4.796c0.395-0.711,0.903-1.377,1.512-1.986
					c1.873-1.874,4.334-2.81,6.783-2.81c2.449,0,4.909,0.937,6.783,2.81c0.609,0.609,1.117,1.275,1.512,1.986
					C231.695,263.457,232.135,265.116,232.135,266.775z"/>
				<path style="opacity:0.25;fill:#FFFFFF;" d="M214.247,271.571c0.395-0.711,0.903-1.377,1.512-1.986
					c3.747-3.747,9.819-3.747,13.565,0c0.609,0.609,1.117,1.275,1.512,1.986c-0.395,0.711-0.903,1.377-1.512,1.986
					c-3.747,3.747-9.819,3.747-13.565,0C215.15,272.948,214.642,272.282,214.247,271.571z"/>
				<path style="opacity:0.25;" d="M230.837,261.978h-16.59c0.395-0.711,0.903-1.377,1.512-1.986c1.873-1.874,4.334-2.81,6.783-2.81
					c2.449,0,4.909,0.937,6.783,2.81C229.934,260.601,230.442,261.267,230.837,261.978z"/>
			</g>
			<g>
				<path style="fill:#006837;" d="M287.051,266.775c0,2.46-0.937,4.909-2.81,6.783c-3.747,3.747-9.819,3.747-13.565,0
					c-1.873-1.874-2.81-4.323-2.81-6.783c0-1.659,0.429-3.318,1.298-4.796c0.395-0.711,0.903-1.377,1.512-1.986
					c1.874-1.874,4.334-2.81,6.783-2.81c2.449,0,4.909,0.937,6.783,2.81c0.609,0.609,1.117,1.275,1.512,1.986
					C286.623,263.457,287.051,265.116,287.051,266.775z"/>
				<path style="opacity:0.25;fill:#FFFFFF;" d="M269.165,271.571c0.395-0.711,0.903-1.377,1.512-1.986
					c3.747-3.747,9.819-3.747,13.565,0c0.609,0.609,1.117,1.275,1.512,1.986c-0.395,0.711-0.903,1.377-1.512,1.986
					c-3.747,3.747-9.819,3.747-13.565,0C270.068,272.948,269.56,272.282,269.165,271.571z"/>
				<path style="opacity:0.25;" d="M285.754,261.978h-16.59c0.395-0.711,0.903-1.377,1.512-1.986c1.874-1.874,4.334-2.81,6.783-2.81
					c2.449,0,4.909,0.937,6.783,2.81C284.851,260.601,285.359,261.267,285.754,261.978z"/>
			</g>
		</g>
		<g>
			<g>
				<g>
					<path style="fill:#006837;" d="M191.213,161.253l-4.684,4.796l-4.684,4.796l-13.193,13.498
						c-3.431-3.465-5.553-8.227-5.553-13.498l4.684-4.796l4.684-4.796l13.193-13.498
						C189.091,151.22,191.213,155.983,191.213,161.253z"/>
					<polygon style="opacity:0.25;" points="191.213,161.253 186.529,166.049 167.784,166.049 172.467,161.253 					"/>
				</g>
				<g>
					<path style="fill:#006837;" d="M320.243,218.81l-21.082,4.796l-21.082,4.796l-74.226,16.895c-0.011,0-0.011,0-0.011,0
						c-6.004-3.25-10.078-9.593-10.078-16.895l42.163-9.593l74.238-16.895C316.158,205.166,320.243,211.508,320.243,218.81z"/>
					<polygon style="opacity:0.25;" points="320.243,218.81 299.161,223.607 214.845,223.607 235.927,218.81 					"/>
				</g>
				<g>
					<path style="fill:#006837;" d="M336.901,190.032l-26.183,4.796l-26.194,4.797l-94.033,17.222
						c-6.354-3.115-10.733-9.661-10.733-17.222l26.194-4.797l26.183-4.796l94.033-17.222
						C332.522,175.924,336.901,182.47,336.901,190.032z"/>
					<polygon style="opacity:0.25;" points="336.901,190.032 310.718,194.828 205.952,194.828 232.135,190.032 					"/>
				</g>
			</g>
			<g>
				<g>
					<path style="fill:#D9E021;" d="M191.213,161.253H144.58c-5.293,0-9.593-4.3-9.593-9.593c0-2.641,1.072-5.045,2.81-6.783
						c1.738-1.738,4.131-2.81,6.783-2.81h27.447c5.327,0,10.157,2.178,13.633,5.688c1.151,1.162,2.156,2.472,2.979,3.905
						C190.276,154.47,191.213,157.754,191.213,161.253z"/>
					<path style="fill:#FFFFFF;" d="M188.64,151.66h-53.652c0-2.641,1.072-5.045,2.81-6.783c1.738-1.738,4.131-2.81,6.783-2.81
						h27.447c5.327,0,10.157,2.178,13.633,5.688C186.811,148.918,187.816,150.227,188.64,151.66z"/>
				</g>
				<g>
					<path style="fill:#8CC63F;" d="M336.901,190.032H182.286c-5.327,0-10.157-2.178-13.633-5.688
						c-1.151-1.162-2.156-2.471-2.979-3.905c-1.637-2.81-2.573-6.094-2.573-9.593h154.615c3.036,0,5.902,0.7,8.453,1.964
						c3.42,1.67,6.264,4.345,8.16,7.629C335.964,183.26,336.901,186.533,336.901,190.032z"/>
					<path style="opacity:0.5;fill:#FFFFFF;" d="M334.327,180.439H165.673c-1.637-2.81-2.573-6.094-2.573-9.593h154.615
						c3.036,0,5.902,0.7,8.453,1.964C329.587,174.48,332.431,177.155,334.327,180.439z"/>
				</g>
				<g>
					<path style="fill:#39B54A;" d="M320.243,218.81H198.944c-3.036,0-5.902-0.7-8.453-1.964c-3.419-1.67-6.264-4.345-8.16-7.629
						c-1.636-2.822-2.573-6.094-2.573-9.593h121.299c3.295,0,6.399,0.835,9.108,2.291c3.126,1.693,5.722,4.232,7.516,7.302
						C319.306,212.028,320.243,215.312,320.243,218.81z"/>
					<path style="opacity:0.5;fill:#FFFFFF;" d="M317.681,209.217h-135.35c-1.636-2.822-2.573-6.094-2.573-9.593h121.299
						c3.295,0,6.399,0.835,9.108,2.291C313.291,203.608,315.887,206.148,317.681,209.217z"/>
				</g>
				<g>
					<path style="fill:#009245;" d="M306.237,237.996c0,5.293-4.289,9.593-9.593,9.593h-83.695c-3.296,0-6.388-0.824-9.096-2.291
						c-0.011,0-0.011,0-0.011,0c-3.126-1.693-5.733-4.232-7.516-7.302c-1.625-2.81-2.562-6.094-2.562-9.593h102.881
						C301.949,228.403,306.237,232.703,306.237,237.996z"/>
					<path style="opacity:0.5;fill:#FFFFFF;" d="M306.237,237.996H196.325c-1.625-2.81-2.562-6.094-2.562-9.593h102.881
						C301.949,228.403,306.237,232.703,306.237,237.996z"/>
				</g>
			</g>
		</g>
	</g>
	<g>
		<text transform="matrix(1 0 0 1 91.3137 328.8604)"><tspan x="0" y="0" style="fill:#8CC63F; font-family:'Montserrat-BlackItalic'; font-size:36px;">VEGAN</tspan><tspan x="138.167" y="0" style="fill:#39B54A; font-family:'Montserrat-BlackItalic'; font-size:36px;"> </tspan><tspan x="148.966" y="0" style="fill:#009245; font-family:'Montserrat-BlackItalic'; font-size:36px;">MARKET</tspan></text>
		
			<text transform="matrix(1 0 0 1 118.2654 353.7247)" style="fill:#006837; font-family:'Montserrat-MediumItalic'; font-size:16px; letter-spacing:3;">SUPERMARKET TAGLINE</text>
	</g>
</g>
</svg>
